<?xml version="1.0" encoding="utf-8"?>
<!-- Generator: Adobe Illustrator 18.1.1, SVG Export Plug-In . SVG Version: 6.00 Build 0)  -->
<!DOCTYPE svg PUBLIC "-//W3C//DTD SVG 1.0//EN" "http://www.w3.org/TR/2001/REC-SVG-20010904/DTD/svg10.dtd">
<svg version="1.0" id="Layer_1" xmlns="http://www.w3.org/2000/svg" xmlns:xlink="http://www.w3.org/1999/xlink" x="0px" y="0px"
	 viewBox="0 0 500 280" enable-background="new 0 0 500 280" xml:space="preserve">
<g opacity="0.1">
	<defs>
		<rect id="SVGID_1_" x="611" opacity="0.1" width="225" height="225"/>
	</defs>
	<clipPath id="SVGID_2_">
		<use xlink:href="#SVGID_1_"  overflow="visible"/>
	</clipPath>
	<path clip-path="url(#SVGID_2_)" fill="#FFFFFF" d="M698.255-226.418c-266.603,0-482.728,216.126-482.728,482.73
		s216.125,482.73,482.728,482.73c266.607,0,482.732-216.126,482.732-482.73S964.863-226.418,698.255-226.418z M696.556-135.754
		C974.272,141.45,481.564,172.307,597.02,428.524C329.451,155.584,805.914,109.432,696.556-135.754z M696.556,648.38
		c-267.57-272.938,208.893-319.091,99.536-564.277C1073.812,361.301,581.1,392.163,696.556,648.38z"/>
</g>
<g>
	<defs>
		<rect id="SVGID_17_" x="611" y="284" width="225" height="225"/>
	</defs>
	<clipPath id="SVGID_4_">
		<use xlink:href="#SVGID_17_"  overflow="visible"/>
	</clipPath>
	<g opacity="0.2" clip-path="url(#SVGID_4_)">
		<path fill="#FFFFFF" d="M1107.683-498.908l65.007-65.007H272.157v450.278c0,0.688-0.021,1.444-0.093,2.144
			c-0.07,1.062-7.134,106.26,44.672,225.926c30.567,70.646,75.401,132.432,133.272,183.655
			c71.298,63.149,162.928,110.55,272.416,140.941v-937.938H1107.683z M412.401-446.369c40.288,25.133,47.423,53.812,27.184,77.29
			c12.637-47.903-28.841-39.1-16.973,0.489C398.155-388.035,421.657-416.024,412.401-446.369z M412.401-243.585
			c40.288,25.124,47.423,53.812,27.184,77.302c12.637-47.9-28.841-39.124-16.973,0.466
			C398.155-185.261,421.657-213.252,412.401-243.585z M422.612,36.957c-24.458-19.446-0.955-47.399-10.211-77.756
			c40.288,25.133,47.423,53.824,27.184,77.29C452.221-11.399,410.743-2.632,422.612,36.957z M578.825,125.614
			c-76.497,18.675,8.882,28.024,8.882,40.883H484.305c0-12.859,85.403-18.852,11.377-40.115
			c-36.044-9.641-67.287-59.327-67.287-75.846h10.328c56.679,56.693,71.042-20.54,160.805,20.776
			c47.542,24.562,28.981-46.819-14.805-21.136C659.121-25.469,705.054,92.087,578.825,125.614z M578.825-77.172
			c-76.497,18.665,8.882,28.027,8.882,40.895H484.305c0-12.869,85.403-18.873,11.377-40.124
			c-36.044-9.631-67.287-59.327-67.287-75.834h10.328c56.679,56.691,71.042-20.554,160.805,20.762
			c47.542,24.562,28.981-46.804-14.805-21.125C659.121-228.243,705.054-110.688,578.825-77.172z M578.825-279.944
			c-76.497,18.675,8.882,28.024,8.882,40.883H484.305c0-12.859,85.403-18.864,11.377-40.115
			c-36.044-9.641-67.287-59.348-67.287-75.834h10.328c56.679,56.67,71.042-20.552,160.805,20.752
			c47.542,24.574,28.981-46.819-14.805-21.124C659.121-431.039,705.054-313.471,578.825-279.944z"/>
	</g>
</g>
<g opacity="0.1">
	<defs>
		<rect id="SVGID_29_" x="611" y="562" opacity="0.1" width="225" height="225"/>
	</defs>
	<clipPath id="SVGID_6_">
		<use xlink:href="#SVGID_29_"  overflow="visible"/>
	</clipPath>
	<path clip-path="url(#SVGID_6_)" fill="#FFFFFF" d="M738.287,264.03c-239.793,0-434.184,194.392-434.184,434.186
		s194.391,434.186,434.184,434.186c239.797,0,434.188-194.392,434.188-434.186S978.084,264.03,738.287,264.03z M736.759,345.577
		c249.789,249.327-193.372,277.081-89.526,507.533C406.57,607.617,835.119,566.107,736.759,345.577z M736.759,1050.857
		c-240.663-245.491,187.887-287.003,89.526-507.532C1076.078,792.647,632.913,820.406,736.759,1050.857z"/>
</g>
<g>
	<path fill="#818286" d="M348.207-18.817c113.294,117.106-87.706,130.141-40.606,238.384
		C198.447,104.261,392.819,84.764,348.207-18.817z"/>
	<path fill="#818286" d="M388.813,74.063c113.294,117.106-87.706,130.141-40.606,238.384
		C239.053,197.141,433.424,177.644,388.813,74.063z"/>
	<path fill="#818286" d="M207.393,121.271c-4.275,0-6.266,2.921-5.381,6.6c0.824,3.419,6.449,5.496,6.449,5.496
		s4.855-1.322,4.855-6.808C213.316,125.279,212.208,121.271,207.393,121.271z"/>
	<path fill="#818286" d="M207.393,16.933c-4.275,0-6.266,2.922-5.381,6.6c0.824,3.419,6.449,5.496,6.449,5.496
		s4.855-1.322,4.855-6.808C213.316,20.941,212.208,16.933,207.393,16.933z"/>
	<path fill="#818286" d="M207.393,225.609c-4.275,0-6.266,2.922-5.381,6.6c0.824,3.419,6.449,5.496,6.449,5.496
		s4.855-1.322,4.855-6.808C213.316,229.617,212.208,225.609,207.393,225.609z"/>
	<path fill="#818286" d="M500,134.563V8.935v-123.74l-32,31.704v219.575c0,0.364,0.264,0.722,0.287,1.08
		c0.034,0.489,3.616,51.796-21.647,110.154c-14.918,34.452-37.171,64.583-65.391,89.563C346.478,368.067,302,391.177,248,406.003
		v34.122c135-36.185,197.859-112.581,227.013-179.921C504.154,192.865,500,134.563,500,134.563z"/>
	<path fill="#818286" d="M436.804-50l31.701-32H30v218.486c0,0.335-0.338,0.704-0.373,1.046
		c-0.034,0.518-3.643,51.82,21.621,110.177c14.907,34.452,36.227,64.583,64.448,89.563C150.466,368.067,197,391.183,248,406.003V-50
		H436.804z M86.63-18.817c0,0,1.495,0.844,3.461,2.876c8.187,8.467,14.867,19.537,1.905,30.491c2.178-3.424-1.008-6.121-3.39-8.895
		c-2.383,2.774-5.568,5.471-3.39,8.895C65.89,0.977,94.36-7.658,86.63-18.817z M86.63,85.521c0,0,1.495,0.844,3.461,2.876
		c8.187,8.467,14.867,19.537,1.905,30.491c2.178-3.424-1.008-6.121-3.39-8.895c-2.383,2.773-5.568,5.471-3.39,8.895
		C65.89,105.314,94.36,96.679,86.63,85.521z M86.63,189.858c0,0,1.495,0.844,3.461,2.876c8.187,8.467,14.867,19.537,1.905,30.491
		c2.178-3.424-1.008-6.121-3.39-8.895c-2.383,2.774-5.568,5.471-3.39,8.895C65.89,209.652,94.36,201.017,86.63,189.858z
		 M219.243,243.688c-8.397,13.34-25.579,22.213-35.234,24.786c-9.655,2.573-22.748,3.65-22.748,10.401
		c0,5.889,7.481,6.738,16.27,7.956c7.524,1.043,6.468,6.169,6.468,6.169H155.3H126.6c0,0-1.057-5.126,6.468-6.169
		c8.79-1.218,16.27-2.014,16.27-7.903c0-6.751-13.092-7.855-22.748-10.428c-9.655-2.573-27.34-10.367-35.234-24.01
		C85.178,233.813,85.215,230,85.215,230h6.693c0,0,2.994,5.496,7.12,8.072c4.064,2.539,10.847,4.447,22.649,4.447
		s22.428-6.926,33.624-6.926c11.195,0,21.823,6.63,33.623,6.63c3.759,0,7.01-0.281,9.827-0.68c0,0-11.859-6.444-5.819-17.412
		c5.345-9.706,18.891-8.239,24.587-3.937C222.547,223.992,227.416,230.703,219.243,243.688z M219.243,139.35
		c-8.397,13.34-25.579,22.213-35.234,24.786c-9.655,2.573-22.748,3.65-22.748,10.401c0,5.889,7.481,6.407,16.27,7.625
		c7.524,1.043,6.468,5.838,6.468,5.838H155.3H126.6c0,0-1.057-4.795,6.468-5.838c8.79-1.218,16.27-1.848,16.27-7.737
		c0-6.751-13.092-7.772-22.748-10.345c-9.655-2.573-27.34-10.657-35.234-24.3C85.178,129.103,85.215,125,85.215,125h6.693
		c0,0,2.994,5.827,7.12,8.403c4.064,2.539,10.847,4.612,22.649,4.612s22.428-6.843,33.624-6.843c11.195,0,21.823,6.671,33.623,6.671
		c3.759,0,7.01-0.26,9.827-0.659c0,0-11.859-6.433-5.819-17.402c5.345-9.706,18.891-8.234,24.587-3.932
		C222.547,119.649,227.416,126.365,219.243,139.35z M219.243,35.012c-8.397,13.34-25.579,22.213-35.234,24.786
		c-9.655,2.573-22.748,3.65-22.748,10.401c0,5.889,7.481,6.576,16.27,7.794c7.524,1.043,6.468,6.007,6.468,6.007H155.3H126.6
		c0,0-1.057-4.964,6.468-6.007c8.79-1.218,16.27-1.933,16.27-7.821c0-6.751-13.092-7.814-22.748-10.387
		c-9.655-2.573-27.34-11.009-35.234-24.652C85.178,24.455,85.215,20,85.215,20h6.693c0,0,2.994,6.158,7.12,8.735
		c4.064,2.539,10.847,4.778,22.649,4.778s22.428-6.76,33.624-6.76c11.195,0,21.823,6.713,33.623,6.713
		c3.759,0,7.01-0.24,9.827-0.639c0,0-11.859-6.423-5.819-17.392c5.345-9.706,18.891-8.229,24.587-3.927
		C222.547,15.306,227.416,22.027,219.243,35.012z"/>
</g>
</svg>
